<svg xmlns="http://www.w3.org/2000/svg" xmlns:xlink="http://www.w3.org/1999/xlink" width="95" height="30"><defs><path id="a" d="M.112.151h25.13v25.655H.112z"/></defs><g fill="none" fill-rule="evenodd"><path fill="#1567a0" d="M91.285 16.936a.327.327 0 01-.33.324H78.048a.327.327 0 01-.331-.324V9.172c0-.179.148-.323.33-.323h1.255c0-.006-.003-.01-.003-.015 0-.107.086-.193.193-.193h.943c.106 0 .193.086.193.193l-.003.015h7.753c0-.006-.003-.01-.003-.015 0-.107.086-.193.193-.193h.942c.107 0 .194.086.194.193 0 .005-.003.01-.004.015h1.255c.182 0 .33.144.33.323v7.764zm-9.161-9.783c0-.4.323-.722.721-.722h3.216c.398 0 .722.323.722.722v1.323h-.65V7.459a.38.38 0 00-.38-.381h-2.6a.38.38 0 00-.38.381v1.017h-.65V7.153zm2.843-5.627c-5.469 0-9.902 4.433-9.902 9.902v9.902h9.902c5.469 0 9.902-4.434 9.902-9.902 0-5.469-4.433-9.902-9.902-9.902zM14.051 4.1c-.26-.22-.62-.428-1.07-.618a8.373 8.373 0 00-1.577-.464 10.069 10.069 0 00-1.992-.185c-1.043 0-2.013.142-2.883.423-.87.28-1.664.672-2.359 1.163a8.764 8.764 0 00-1.832 1.744 10.411 10.411 0 00-1.3 2.149 11.589 11.589 0 00-.78 2.404c-.171.83-.258 1.67-.258 2.495 0 1.163.127 2.204.377 3.095.25.894.596 1.682 1.028 2.345.434.665.951 1.23 1.538 1.675a8.212 8.212 0 001.86 1.069 9.175 9.175 0 002.021.57 12.66 12.66 0 002.02.167 12.637 12.637 0 002.626-.282c.376-.083.71-.172.99-.265a4.72 4.72 0 00.673-.267c.151-.072.273-.145.373-.224.113-.088.204-.194.272-.315.065-.117.111-.258.137-.417.023-.14.037-.306.043-.508.015-.476.033-.942.054-1.398.02-.457.04-.885.055-1.282l.043-1.079c.013-.33.02-.596.02-.813 0-.418-.084-.717-.254-.912-.178-.205-.454-.309-.82-.309a131.381 131.381 0 00-1.334.028 82.953 82.953 0 01-2.162.026h-.514c-.062 0-.131-.002-.208-.007l-.327-.02.097 1.356h.267c.133 0 .245 0 .336-.004.085-.003.16-.004.225-.004h.381c.389 0 .71.012.955.034.2.018.351.065.45.14.09.066.152.171.19.322.048.191.073.47.073.83v.7c0 .363-.007.732-.02 1.1-.012.366-.039.703-.08 1.007a.822.822 0 01-.137.363.98.98 0 01-.355.304 2.512 2.512 0 01-.704.235 5.93 5.93 0 01-1.127.092 6.806 6.806 0 01-1.64-.198 5.503 5.503 0 01-1.48-.607 5.525 5.525 0 01-1.266-1.044 6.188 6.188 0 01-.992-1.515 8.903 8.903 0 01-.656-2.033 12.973 12.973 0 01-.236-2.578c0-.683.054-1.37.16-2.042.106-.669.27-1.315.489-1.921a8.342 8.342 0 01.824-1.679 5.87 5.87 0 011.158-1.321c.44-.37.946-.662 1.504-.87a5.369 5.369 0 011.878-.314c.398 0 .794.037 1.177.108.379.072.737.181 1.063.325.33.143.634.321.907.53.27.204.505.446.7.715.178.253.302.529.366.82.068.31.105.637.11.969a5.108 5.108 0 01-.015.401l-.021.3 1.256.028.015-.278c.04-.81.076-1.5.105-2.071.028-.575.043-1.049.043-1.409 0-.262-.15-.516-.46-.78m55.728 8.97a.285.285 0 00-.012.197l.023.079a.291.291 0 00.197.193c.262.073.518.111.768.111h.001a1.63 1.63 0 00.717-.164c.196-.1.357-.23.481-.382.122-.151.21-.316.262-.492a1.63 1.63 0 00.074-.47 1.78 1.78 0 00-.292-.998 2.385 2.385 0 00-.75-.72 3.565 3.565 0 00-1.057-.434 5.574 5.574 0 00-2.29-.05 5.769 5.769 0 00-1.045.286c-.34.13-.663.292-.96.483a3.933 3.933 0 00-.807.685 3.155 3.155 0 00-.56.894c-.139.336-.21.705-.21 1.1 0 .363.055.7.161 1.001.106.3.254.575.44.819.181.237.396.457.64.653.234.189.49.366.76.528.27.162.55.312.83.445l.828.393c.31.15.609.297.895.441.27.137.51.287.711.445.19.15.344.317.456.495.102.163.151.35.151.572 0 .216-.047.403-.145.574a1.406 1.406 0 01-.405.447 2.054 2.054 0 01-.614.293 2.865 2.865 0 01-1.589-.017 2.44 2.44 0 01-.757-.362 2.069 2.069 0 01-.564-.617 2.073 2.073 0 01-.275-.897.293.293 0 00-.097-.19l-.062-.054a.299.299 0 00-.197-.07 2.692 2.692 0 00-.595.082c-.202.05-.388.13-.554.234a1.244 1.244 0 00-.601 1.099c0 .281.066.543.195.78.122.224.29.43.5.61.2.172.438.326.706.46.259.127.537.236.827.324a6.389 6.389 0 001.788.261c.575 0 1.138-.078 1.672-.233a4.664 4.664 0 001.447-.693 3.597 3.597 0 001.028-1.142c.26-.457.391-.984.391-1.566 0-.495-.108-.935-.322-1.307a3.514 3.514 0 00-.81-.954 5.944 5.944 0 00-1.095-.715c-.397-.204-.795-.4-1.184-.585a32.728 32.728 0 01-1.008-.494 5.523 5.523 0 01-.817-.506 2.345 2.345 0 01-.535-.555 1.055 1.055 0 01-.178-.608c0-.178.042-.347.128-.515.088-.171.218-.328.387-.465.171-.141.389-.257.646-.344.259-.088.56-.133.896-.133.188 0 .38.022.575.064.184.04.353.104.503.193.142.083.257.188.352.32a.771.771 0 01.13.437c0 .098-.014.208-.04.327a2.27 2.27 0 01-.14.407M48.47 16.727a8.45 8.45 0 01-.169 1.066c-.08.355-.187.704-.318 1.036-.127.32-.288.608-.481.855-.186.24-.41.433-.663.577a1.718 1.718 0 01-.859.208c-.307 0-.59-.055-.84-.163a2.381 2.381 0 01-.696-.46 3.047 3.047 0 01-.547-.7 5.017 5.017 0 01-.402-.896 5.698 5.698 0 01-.24-1.002 6.858 6.858 0 01-.08-1.032c0-.291.017-.619.05-.974.032-.351.09-.71.17-1.065.079-.353.186-.7.317-1.032.127-.32.289-.609.481-.856.186-.238.409-.43.661-.572.244-.136.534-.205.861-.205.307 0 .59.055.84.163.257.111.492.265.697.457.21.196.394.43.547.697.159.276.294.576.401.891.108.316.19.65.242.994.052.345.078.693.078 1.035 0 .296-.017.624-.05.978m1.375-5.243a4.302 4.302 0 00-1.38-1.187c-.55-.303-1.19-.456-1.9-.456-.625 0-1.213.103-1.746.307a5.299 5.299 0 00-1.449.83c-.429.349-.812.76-1.14 1.222-.324.46-.6.957-.82 1.48a8.59 8.59 0 00-.5 1.623 8.377 8.377 0 00-.168 1.653c0 .638.094 1.271.28 1.882.189.617.468 1.174.832 1.658.368.49.832.89 1.376 1.189.552.302 1.192.455 1.901.455.624 0 1.211-.103 1.745-.307a5.255 5.255 0 001.449-.83 6.17 6.17 0 001.14-1.222 7.91 7.91 0 00.824-1.479 8.414 8.414 0 00.673-3.277c0-.638-.095-1.272-.281-1.883a5.325 5.325 0 00-.836-1.658m10.328 6.022c-.19.685-.45 1.27-.774 1.74-.316.46-.689.815-1.108 1.055-.414.235-.86.355-1.326.355a2.339 2.339 0 01-2.019-1.106 2.687 2.687 0 01-.318-.758c.004-.145.038-.341.1-.586a8.78 8.78 0 01.298-.93c.13-.347.287-.716.466-1.097a12.55 12.55 0 011.335-2.215c.253-.335.521-.634.796-.89.267-.247.546-.447.831-.593.267-.137.539-.206.808-.206.193 0 .347.065.483.205.162.166.295.385.398.65.108.283.19.604.24.955.053.36.08.713.08 1.049 0 .883-.098 1.68-.29 2.372m2.527-5.057a5.67 5.67 0 00-.345-.952 3.29 3.29 0 00-.554-.835 2.654 2.654 0 00-.803-.595 2.472 2.472 0 00-1.074-.226c-.473 0-.977.145-1.498.432-.504.278-1.016.692-1.522 1.23-.5.533-.997 1.198-1.476 1.978-.283.46-.557.967-.82 1.514a138.322 138.322 0 01.248-3.758c.07-.893.149-1.802.233-2.702.086-.913.174-1.821.265-2.724.089-.887.184-1.787.284-2.675.098-.882.197-1.738.295-2.568l.024-.203-.183-.089c-.542-.262-1.054-.332-1.576-.233-.164.03-.313.08-.445.145a1.097 1.097 0 00-.368.296.821.821 0 00-.18.484c-.035.582-.075 1.25-.116 2.003l-.132 2.39c-.047.842-.094 1.708-.14 2.598-.047.89-.092 1.763-.133 2.614l-.12 2.429c-.04.769-.072 1.455-.098 2.055a55.73 55.73 0 01-.31 3.76c-.132 1.088-.339 2.03-.616 2.8l-.107.298.879.22.115-.127a5.886 5.886 0 00.932-1.449c.151.178.313.342.484.488.292.252.607.46.937.62.327.16.668.28 1.012.357.343.077.69.116 1.033.116.508 0 1.022-.081 1.528-.243.502-.161.985-.4 1.437-.71.45-.309.872-.693 1.255-1.14.382-.448.718-.964.997-1.536.278-.57.5-1.21.656-1.9.158-.69.237-1.441.237-2.232 0-.288-.017-.602-.052-.933a6.468 6.468 0 00-.183-.997"/><g transform="translate(15.726 3.093)"><mask id="b" fill="#fff"><use xlink:href="#a"/></mask><path fill="#1567a0" d="M6.431 10.454c-.185.241-.462.455-.823.634-.379.188-.854.345-1.413.467-.475.104-1.01.183-1.592.235.029-.186.064-.375.107-.565.07-.307.161-.61.273-.903.11-.29.245-.565.401-.821.152-.25.33-.47.528-.657.193-.182.414-.328.657-.433.238-.103.508-.155.805-.155a1.268 1.268 0 01.939.403c.117.126.21.277.277.45.067.173.101.363.101.566 0 .296-.085.55-.26.779m18.811-6.245c0-.352-.153-.56-.282-.671-.35-.305-.877-.241-.936-.233l-.18.025.024-.004.004-.142c.008-.296.012-.516.012-.657 0-.336-.008-.64-.024-.905a2.055 2.055 0 00-.18-.765 1.129 1.129 0 00-.536-.538C22.7.1 22.004.096 20.766.305c-.583.098-1.271.25-2.045.449l-.242.062.143 1.19.293-.045c.13-.02.266-.038.403-.053.142-.015.28-.03.414-.042a6.671 6.671 0 01.658-.034c.223 0 .399.02.523.06a.427.427 0 01.214.138.618.618 0 01.104.29c.021.159.032.357.032.588 0 .403-.001.801-.003 1.196-.692.276-4.383 1.697-4.501 1.75-1.143.516-1.753.77-2.073.89.05-.402.104-.728.165-1.09.052-.314.106-.637.164-1.051.147-1.04.33-2.06.545-3.035l.046-.207-.185-.104a1.87 1.87 0 00-.453-.183 2.046 2.046 0 00-.91-.028 1.284 1.284 0 00-.389.14 1.05 1.05 0 00-.532.745c-.135.757-.271 1.63-.406 2.596-.129.919-.255 1.933-.374 3.016-.503.653-1.88 1.526-3.12 2.242.024-.14.036-.282.036-.43 0-.41-.09-.784-.268-1.11a2.513 2.513 0 00-.708-.814 3.243 3.243 0 00-1.004-.492 4.134 4.134 0 00-1.18-.167c-.611 0-1.193.097-1.727.289a5.576 5.576 0 00-1.47.792 6.224 6.224 0 00-1.188 1.184 7.626 7.626 0 00-.878 1.46 8.202 8.202 0 00-.739 3.374c0 .71.112 1.385.332 2.008.221.624.533 1.177.928 1.643.397.468.878.844 1.432 1.115.557.273 1.175.41 1.839.41.386 0 .782-.05 1.177-.152.396-.102.789-.26 1.17-.47.377-.21.745-.474 1.095-.785.35-.312.679-.683.975-1.095a.385.385 0 00.082-.237.459.459 0 00-.109-.29 1.003 1.003 0 00-.152-.154 1.621 1.621 0 00-.311-.194l-.187-.092-.146.15c-.478.491-.951.85-1.407 1.065-.889.418-1.75.42-2.47.027a2.978 2.978 0 01-.952-.836 4.26 4.26 0 01-.652-1.325 5.892 5.892 0 01-.24-1.609 23.468 23.468 0 002.438-.358c.838-.172 1.58-.402 2.206-.685.088-.04.173-.082.256-.125.432-.158 1.136-.522 3.715-2.046.044-.026.102-.056.167-.092.201-.112.59-.328.901-.451l-.01.055a5.68 5.68 0 00-.074.584c-.042.52-.076 1.042-.102 1.55a82.085 82.085 0 00-.063 1.528c-.015.503-.023.997-.023 1.468 0 .856.061 1.579.181 2.147.124.582.302 1.055.53 1.408.241.371.534.635.873.784.323.143.683.215 1.07.215.284 0 .588-.036.905-.108.31-.071.632-.172.96-.3.326-.13.66-.285.995-.462.333-.178.668-.378.996-.594l.145-.096-.018-.173a1.099 1.099 0 00-.324-.687l-.145-.145-.184.09a6.85 6.85 0 01-1.132.457c-.736.21-1.308.17-1.672-.06a1.352 1.352 0 01-.494-.578 3.451 3.451 0 01-.278-1.024c-.055-.42-.083-.908-.083-1.45a55.83 55.83 0 01.159-3.813l.038-.543c.025-.372.052-.784.083-1.131.766-.423 3.2-1.262 3.7-1.494.284-.131 1.892-.66 3.015-1.027-.007.695-.015 1.39-.026 2.082-.013.829-.031 1.674-.054 2.512-.024.843-.05 1.708-.082 2.595-.036 1.052-.08 2.069-.128 3.02a41.584 41.584 0 01-.217 2.652c-.094.81-.22 1.547-.375 2.194-.152.635-.35 1.183-.59 1.629-.228.426-.51.756-.839.98-.323.22-.7.328-1.154.328-.436 0-.847-.11-1.224-.324-.375-.214-.713-.585-1.002-1.102l-.082-.147h-.168c-.213 0-.416.045-.602.133a1.748 1.748 0 00-.47.326 1.59 1.59 0 00-.328.457 1.225 1.225 0 00-.125.523c0 .29.088.57.262.832.164.248.394.466.681.649.278.175.61.317.985.42.373.102.785.154 1.224.154.328 0 .668-.033 1.012-.099a4.798 4.798 0 001.044-.331c.346-.154.688-.36 1.018-.61.33-.251.649-.566.946-.937.295-.368.569-.805.815-1.301a9.998 9.998 0 00.643-1.704c.277-.973.5-2.041.665-3.175.164-1.13.293-2.31.384-3.512.09-1.199.158-2.435.2-3.675.038-1.163.072-2.29.1-3.363v.001c.766-.993 1.483-2.369 1.483-2.892" mask="url(#b)"/></g></g></svg>